PathFileType	4	(X/Y/Z)	C:/Users/beibeiliu/ov580/test_trc/User2\sequence.21_training_dense_left.trc
DataRate	CameraRate	NumFrames	NumMarkers	Units	OrigDataRate	OrigDataStartFrame	OrigNumFrames
120	120	11	19	mm	120	202	322
Frame#	Time	ThumbCMC			ThumbMCP			ThumbIP			ThumbTip			IndexMCP			IndexPIP			IndexTip			MiddleMCP			MiddlePIP			MiddleTip			RingMCP			RingPIP			RingTip			PinkyMCP			PinkyPIP			PinkyTip			BackHand1			BackHand2			BackHand3	
		X0	Y0	Z0	X1	Y1	Z1	X2	Y2	Z2	X3	Y3	Z3	X4	Y4	Z4	X5	Y5	Z5	X6	Y6	Z6	X7	Y7	Z7	X8	Y8	Z8	X9	Y9	Z9	X10	Y10	Z10	X11	Y11	Z11	X12	Y12	Z12	X13	Y13	Z13	X14	Y14	Z14	X15	Y15	Z15	X16	Y16	Z16	X17	Y17	Z17	X18	Y18	Z18	
201	1.675	-231.95	22.0849	43.8999	-201.203	36.4152	28.3467	-173.327	37.311	9.03304	-149.929	34.4687	-3.10542	-208.281	-22.2113	-16.1673	-179.218	-12.8136	-31.1215	-156.358	0.354397	-32.821	-196.772	-38.4399	-12.5941	-166.64	-14.4538	-10.0057	-178.514	4.12154	21.3838	-180.375	-51.1632	2.12089	-157.952	-27.6413	4.33083	-176.994	-9.56547	31.3487	-176.793	-60.6824	22.7684	-151.268	-37.4629	13.606	-160.6	-14.9601	33.3063	-224.642	-51.458	49.1739	-240.849	-39.5171	81.9534	-253.545	-21.2201	50.9899	
202	1.68333	-238.913	19.2344	46.0228	-207.213	27.9468	24.2228	-180.606	35.7802	4.06464	-158.268	40.037	-9.19453	-213.072	-23.8633	-17.7642	-184.862	-12.2245	-34.9633	-160.184	2.26247	-34.2068	-197.295	-39.2853	-11.6856	-169.15	-10.9156	-13.9452	-179.872	4.769	19.7604	-181.994	-47.5455	-0.0352515	-160.972	-25.8121	-3.14715	-177.265	-7.08217	24.4219	-172.996	-57.9942	20.3345	-152.379	-38.6182	9.52633	-160.382	-11.0676	28.463	-221.462	-51.4136	49.0573	-238.136	-44.0853	80.143	-249.795	-27.4419	47.5482	
203	1.69167	-241.809	15.0745	42.1628	-212.239	30.4205	20.111	-186.496	37.8217	-1.64447	-166.851	37.8471	-12.6379	-213.218	-27.9889	-17.2589	-192.241	-14.5841	-35.7036	-165.634	3.59127	-37.2258	-197.719	-40.6123	-10.9141	-173.214	-11.9762	-17.0064	-186.005	7.99811	13.8785	-179.386	-48.9395	2.45893	-163.509	-20.4191	-2.03162	-180.877	-6.96542	27.28	-174.456	-56.1754	23.7714	-153.928	-34.0843	6.74475	-163.351	-10.7208	23.0396	-216.741	-54.6654	51.5675	-231.731	-48.1154	85.1159	-251.545	-29.2667	48.3605	
204	1.7	-242.717	10.5114	44.2914	-217.377	28.2091	19.6422	-193.628	35.3881	0.347238	-171.319	38.0865	-19.0415	-215.746	-27.324	-21.888	-190.715	-16.3664	-34.7328	-168.624	5.58012	-40.4373	-196.941	-42.8016	-11.1322	-174.593	-15.4531	-19.2907	-185.556	5.56195	14.8858	-182.747	-47.8023	-0.496262	-165.696	-20.479	-4.37937	-180.876	-7.34789	21.9981	-173.725	-55.5541	22.4602	-154.809	-33.3599	4.57743	-162.653	-7.55699	22.7593	-218.911	-53.0002	52.1433	-231.709	-45.6137	82.9917	-251.191	-33.056	52.3521	
205	1.70833	-246.109	13.1127	42.0383	-221.764	28.8164	21.1723	-196.305	33.1212	-6.46793	-178.488	39.123	-22.6933	-221.567	-30.4977	-17.9054	-199.307	-16.0115	-39.7493	-175.643	1.5975	-44.55	-203.402	-42.512	-14.4337	-177.753	-15.9581	-20.539	-190.931	5.566	13.2113	-181.566	-50.2124	-3.40815	-167.103	-21.9718	-7.09053	-186.243	-7.25885	16.928	-175.684	-55.692	15.1599	-157.98	-33.1669	1.14828	-167.809	-7.34801	15.3562	-220.084	-54.7687	52.1879	-226.89	-47.2941	85.6829	-250.175	-34.0375	54.2019	
206	1.71667	-245.987	12.0875	42.6515	-223.172	27.0431	18.8568	-200.892	31.2639	-7.77485	-182.55	35.2984	-30.0481	-225.57	-32.2037	-18.2506	-205.474	-17.2625	-42.2737	-184.294	-0.0837746	-50.7802	-208.811	-42.3989	-16.8505	-183.784	-17.0104	-22.0492	-195.698	4.79998	8.42109	-189.149	-51.6369	-3.36196	-174.463	-24.0894	-12.4914	-190.187	-11.4856	19.3829	-180.563	-56.1158	17.3866	-164.821	-34.5217	-3.40028	-175.374	-7.48512	15.237	-222.586	-54.0387	51.5589	-228.238	-46.0866	87.426	-252.917	-31.5199	52.2471	
207	1.725	-247.152	12.9606	45.7659	-224.502	27.7497	18.5534	-204.863	31.6945	-11.8813	-188.221	35.2407	-30.8199	-233.249	-31.1112	-21.0578	-215.704	-19.317	-42.1852	-192.97	-3.72733	-51.9755	-214.628	-44.4296	-17.4073	-191.474	-19.5576	-26.0496	-198.747	2.3658	9.25077	-198.803	-50.4865	-8.37118	-178.254	-28.7172	-13.7614	-194.15	-12.3473	13.9092	-183.098	-60.5373	12.9666	-167.704	-37.6198	-5.90319	-176.415	-13.601	17.4535	-225.542	-52.929	52.5152	-231.075	-46.6636	84.2119	-254.694	-29.6741	58.0428	
208	1.73333	-247.14	15.0809	47.6795	-224.842	23.3559	17.8414	-206.869	30.8787	-13.4451	-189.002	29.9662	-35.1288	-239.162	-31.9284	-19.6797	-223.328	-19.5459	-44.9004	-199.728	-6.69837	-54.2958	-223.741	-47.1658	-16.0658	-199.671	-21.6852	-27.7272	-203.084	-1.32266	10.0144	-203.626	-56.2428	-7.01389	-188.856	-28.1292	-16.3177	-199.36	-14.9148	15.4978	-195.411	-62.5382	9.25399	-177.966	-39.8899	-8.34228	-181.524	-19.6768	11.3233	-229.271	-52.683	54.3143	-231.89	-45.5429	86.0105	-255.842	-29.8258	58.772	
209	1.74167	-246.841	15.2577	47.4512	-226.133	25.3654	19.1644	-207.723	26.1094	-16.3278	-192.936	25.2718	-34.6961	-249.228	-29.7112	-17.5598	-229.215	-20.823	-42.6271	-203.917	-8.8946	-55.8574	-231.171	-48.8088	-16.9696	-204.998	-24.1986	-29.786	-208.058	-1.22961	3.77713	-215.985	-56.4636	-9.47084	-196.49	-33.9205	-22.1131	-203.841	-16.7864	12.2176	-201.676	-67.1895	8.34721	-183.972	-47.976	-12.2371	-187.306	-23.0107	11.0528	-234.177	-55.1773	53.2759	-237.599	-45.0746	80.9357	-259.964	-28.7305	61.1089	
210	1.75	-247.261	13.969	44.994	-224.539	22.7578	17.5077	-208.328	22.0568	-14.4602	-194.189	21.5738	-38.3443	-256.156	-25.6142	-22.1196	-236.671	-17.6808	-46.2176	-212.483	-11.3133	-57.0904	-240.155	-46.6193	-20.2045	-215.808	-27.2231	-32.8457	-210.972	-6.29554	6.23241	-222.581	-59.0332	-11.9248	-205.853	-38.3639	-24.2808	-207.39	-20.4028	8.03795	-212.131	-71.7085	7.58237	-194.611	-52.721	-16.5063	-193.032	-27.1285	4.25935	-242.272	-54.3831	54.2768	-237.792	-45.0609	85.8493	-263.989	-26.2752	57.3881	
211	1.75833	-243.489	13.6696	48.1785	-222.766	18.2395	15.3507	-206.753	20.3193	-17.0915	-193.97	16.7778	-35.1143	-261.384	-21.8766	-21.9692	-242.662	-18.8795	-43.1745	-215.855	-13.0912	-60.3675	-247.918	-45.8442	-18.5196	-220.935	-28.4822	-33.0064	-212.413	-10.1273	6.27857	-232.089	-60.082	-16.0526	-210.155	-39.6236	-24.6465	-211.942	-24.3439	9.77787	-225.004	-73.2907	2.45524	-207.395	-58.7856	-18.9951	-197.773	-32.9556	-2.08039	-247.143	-57.7652	51.172	-242.815	-48.454	81.8342	-269.165	-21.8524	59.3279	
